<?xml version="1.0" encoding="UTF-8"?>
<svg width="200px" height="200px" viewBox="0 0 200 200" version="1.1" xmlns="http://www.w3.org/2000/svg" xmlns:xlink="http://www.w3.org/1999/xlink">
    <g id="Page-1" stroke="none" stroke-width="1" fill="none" fill-rule="evenodd">
        <g id="white_2" fill="#FFFFFF" fill-rule="nonzero">
            <path d="M100,0 C44.771525,-7.10542736e-15 1.42108547e-14,44.771525 0,100 C-7.10542736e-15,155.228475 44.771525,200 100,200 C155.228475,200 200,155.228475 200,100 C200,73.478351 189.464316,48.0429597 170.710678,29.2893219 C151.95704,10.535684 126.521649,0 100,0 Z M132.17,168.74 C86.74,188.89 36.3,161.85 25.36,114.15 C29.7415419,112.84466 34.4799553,113.626406 38.21,116.27 C41.67,118.93 43.56,123.89 45.59,127.76 C49.8,135.77 56.05,142.53 63.06,148.21 C94.37,173.62 138.78,159.56 155.21,127.76 C155.21,127.76 150.09,127.37 146.13,127.06 C144.958258,126.970051 143.877027,126.395796 143.146369,125.475357 C142.415711,124.554917 142.101749,123.371592 142.28,122.21 C142.401763,121.38935 142.938727,120.689783 143.7,120.36 C149.1,117.99 170.71,108.94 172.94,114.48 C175.17,120.04 171.34,127.71 169.38,131.95 C161.875697,148.338963 148.643089,161.422212 132.17,168.74 Z M91.33,93.21 C83.45,89.35 81.05,79.1 78.77,71.22 L77.72,71.22 C77.21,76.26 73.46,92.14 66.3,91.19 C60.69,90.45 57.84,78.85 56.78,74.36 L55.73,74.36 C54.35,83.68 50.07,97.29 41.07,101.58 C35.08,87.4 43.09,49.98 57.82,42.94 L66.2,68.07 L67.25,68.07 C68.38,63.19 72.11,45.7 78.74,45.7 C82.79,45.7 85.14,53.62 86.29,56.56 C90.76,67.98 94.24,81 91.33,93.21 Z M105.99,50.27 C114.4,52.69 116.78,63.55 118.56,71.22 L119.6,71.22 C120.64,66.74 124.99,49.04 132.02,51.75 C137.48,53.85 139.46,63.29 141.59,68.07 C144.18,59.13 147.24,44.75 157.3,41.9 C160.62,55.86 156.24,71.84 151.02,84.83 C148.58,90.88 146.24,97.55 139.5,99.49 L131.12,74.36 L130.07,74.36 C129.34,82.74 125.46,94.64 117.51,98.44 C110.06,84.28 102.1,66.63 105.99,50.27 Z" id="Shape"></path>
        </g>
    </g>
</svg>